<svg xmlns="http://www.w3.org/2000/svg" width="14" height="14" viewBox="0 0 14 14" fill="none">
  <g clip-path="url(#clip0_0_602)">
    <path d="M11.6666 1.75001H11.0833V0.583344H9.91663V1.75001H4.08329V0.583344H2.91663V1.75001H2.33329C1.69163 1.75001 1.16663 2.27501 1.16663 2.91668V12.25C1.16663 12.8917 1.69163 13.4167 2.33329 13.4167H11.6666C12.3083 13.4167 12.8333 12.8917 12.8333 12.25V2.91668C12.8333 2.27501 12.3083 1.75001 11.6666 1.75001ZM11.6666 12.25H2.33329V4.66668H11.6666V12.25Z" fill="#1C4980"/>
    <path fill-rule="evenodd" clip-rule="evenodd" d="M3.49996 7.00001C3.49996 6.67784 3.76113 6.41668 4.08329 6.41668H5.83329C6.15546 6.41668 6.41663 6.67784 6.41663 7.00001C6.41663 7.32218 6.15546 7.58334 5.83329 7.58334H4.08329C3.76113 7.58334 3.49996 7.32218 3.49996 7.00001ZM7.58329 7.00001C7.58329 6.67784 7.84446 6.41668 8.16663 6.41668H9.91663C10.2388 6.41668 10.5 6.67784 10.5 7.00001C10.5 7.32218 10.2388 7.58334 9.91663 7.58334H8.16663C7.84446 7.58334 7.58329 7.32218 7.58329 7.00001ZM3.49996 9.33334C3.49996 9.01118 3.76113 8.75001 4.08329 8.75001H5.83329C6.15546 8.75001 6.41663 9.01118 6.41663 9.33334C6.41663 9.65551 6.15546 9.91668 5.83329 9.91668H4.08329C3.76113 9.91668 3.49996 9.65551 3.49996 9.33334ZM7.58329 9.33334C7.58329 9.01118 7.84446 8.75001 8.16663 8.75001H9.91663C10.2388 8.75001 10.5 9.01118 10.5 9.33334C10.5 9.65551 10.2388 9.91668 9.91663 9.91668H8.16663C7.84446 9.91668 7.58329 9.65551 7.58329 9.33334Z" fill="#1C4980"/>
  </g>
  <defs>
    <clipPath id="clip0_0_602">
      <rect width="14" height="14" fill="white"/>
    </clipPath>
  </defs>
</svg>