<svg xmlns="http://www.w3.org/2000/svg" width="21" height="20" viewBox="0 0 21 20" fill="none">
  <g clip-path="url(#clip0_0_617)">
    <path d="M10.1808 4.10614L7.82373 6.46316L9.00224 7.64168L11.3593 5.28465C12.3315 4.31238 13.9225 4.31238 14.8948 5.28465C15.8671 6.25692 15.8671 7.84792 14.8948 8.82019L12.5378 11.1772L13.7163 12.3557L16.0733 9.9987C17.6997 8.37235 17.6997 5.73249 16.0733 4.10614C14.447 2.4798 11.8071 2.4798 10.1808 4.10614ZM11.3593 12.3557L9.00224 14.7127C8.02997 15.685 6.43898 15.685 5.46671 14.7127C4.49444 13.7405 4.49444 12.1495 5.46671 11.1772L7.82373 8.82019L6.64522 7.64168L4.2882 9.9987C2.66185 11.625 2.66185 14.2649 4.2882 15.8913C5.91454 17.5176 8.55441 17.5176 10.1808 15.8913L12.5378 13.5342L11.3593 12.3557ZM7.23448 11.7665L11.9485 7.05242L13.127 8.23093L8.41299 12.945L7.23448 11.7665Z" fill="#1C4980"/>
  </g>
  <defs>
    <clipPath id="clip0_0_617">
      <rect width="20" height="20" fill="white" transform="translate(0.18042)"/>
    </clipPath>
  </defs>
</svg>